<svg xmlns="http://www.w3.org/2000/svg" viewBox="0 0 219 35.26"><defs><style>.cls-1,.cls-2{fill:#d41934;}.cls-1{fill-rule:evenodd;}</style></defs><title>IM - Rojo</title><g id="Layer_2" data-name="Layer 2"><g id="Layer_1-2" data-name="Layer 1"><path class="cls-1" d="M114.3,2.72l22.44,20.11h3.69V.38H137.7V20L116.49.38h-4.91V22.83h2.72Zm-10,20.11H107V.38h-2.73ZM100.94,7.24A12.94,12.94,0,0,0,100.76,5a5.68,5.68,0,0,0-.63-1.82,4.82,4.82,0,0,0-1.22-1.41A7,7,0,0,0,97,.77,14.88,14.88,0,0,0,94.23.19,33.32,33.32,0,0,0,90.51,0H82.89a26.7,26.7,0,0,0-4.38.31,9.4,9.4,0,0,0-3,.93A4.82,4.82,0,0,0,73.77,2.8,6.55,6.55,0,0,0,72.86,5a14.39,14.39,0,0,0-.34,2.87c0,1.07,0,2.25,0,3.54s0,2.55,0,3.66a15.45,15.45,0,0,0,.34,3,6.85,6.85,0,0,0,.91,2.28,4.93,4.93,0,0,0,1.79,1.61,9.37,9.37,0,0,0,3,1,25.52,25.52,0,0,0,4.38.32h7.63a33.62,33.62,0,0,0,3.74-.2A13.2,13.2,0,0,0,97,22.4a6.11,6.11,0,0,0,1.91-1.07,5.2,5.2,0,0,0,1.21-1.54,7,7,0,0,0,.63-2,16.48,16.48,0,0,0,.18-2.56V11.42h-14V13.7h11.3v1.45a21,21,0,0,1-.1,2.1,5.58,5.58,0,0,1-.4,1.53,2.84,2.84,0,0,1-.82,1.07,3.72,3.72,0,0,1-1.37.66,10.69,10.69,0,0,1-2.07.33q-1.22.09-2.88.09H82.85c-1.28,0-2.35,0-3.22-.11a7.41,7.41,0,0,1-2.16-.46,2.76,2.76,0,0,1-1.31-1,4.58,4.58,0,0,1-.68-1.7,16.12,16.12,0,0,1-.24-2.59c0-1,0-2.25,0-3.68s0-2.55,0-3.53a14.78,14.78,0,0,1,.25-2.49,4,4,0,0,1,.67-1.63,3,3,0,0,1,1.32-1,8.22,8.22,0,0,1,2.16-.43c.87-.07,1.94-.1,3.22-.1h7.69c1.44,0,2.65,0,3.62.14a6.08,6.08,0,0,1,2.37.64,3,3,0,0,1,1.29,1.49,7.44,7.44,0,0,1,.39,2.68Zm43,15.59h3.16L159.4,2.07l12,20.76h3L161.27.11h-3.9Zm-103-.11h3L55.75,2,67.3,22.72h2.87L57.54,0H53.8ZM21.08,16.58H24L35.37,2.73v20.1h2.72V.38H33.64L22.36,13.79,11.07.38H6.49V22.83H9.22V2.07Zm-21,6.25H2.81V.38H.08Z"/><polygon class="cls-1" points="182.32 12.58 182.32 16.92 195.71 25.07 197.45 21.26 203.38 8.25 206 2.52 202.47 0.38 202.41 0.34 202.36 0.38 182.32 12.58"/><polygon class="cls-1" points="194.76 32.48 198.85 34.96 198.9 35 198.96 34.96 219 22.76 219 18.42 205.05 9.93 194.76 32.48"/><path class="cls-2" d="M5.32,33.07a2.12,2.12,0,0,1-.19.91,2,2,0,0,1-.56.7,2.44,2.44,0,0,1-.85.43,3.66,3.66,0,0,1-1.08.15A4.38,4.38,0,0,1,1.16,35,3,3,0,0,1,0,34.27l.76-.74a2.23,2.23,0,0,0,.55.42,2.8,2.8,0,0,0,.63.23,4.2,4.2,0,0,0,.72.06,1.85,1.85,0,0,0,1.13-.3,1,1,0,0,0,.41-.84,1,1,0,0,0-.29-.77.87.87,0,0,0-.31-.2A2.13,2.13,0,0,0,3.09,32l-.88-.12a2.62,2.62,0,0,1-1.41-.6,1.85,1.85,0,0,1-.54-1.42,2.19,2.19,0,0,1,.3-1.15A2.08,2.08,0,0,1,1.42,28a3.07,3.07,0,0,1,1.33-.27,3.9,3.9,0,0,1,1.3.2,3,3,0,0,1,1,.65l-.72.72a1.73,1.73,0,0,0-.48-.35,2.45,2.45,0,0,0-.54-.18,3.64,3.64,0,0,0-.6,0,1.68,1.68,0,0,0-.74.15,1,1,0,0,0-.46.41,1.08,1.08,0,0,0-.16.6.88.88,0,0,0,.28.69,1.22,1.22,0,0,0,.36.21,1.55,1.55,0,0,0,.48.13l.84.13a3.66,3.66,0,0,1,.84.21,1.75,1.75,0,0,1,.56.34A2,2,0,0,1,5.32,33.07Z"/><path class="cls-2" d="M18.74,31.47q0,.89,0,1.35a3.63,3.63,0,0,1-.19.88,2.25,2.25,0,0,1-.49.76,2.7,2.7,0,0,1-2,.8,2.65,2.65,0,0,1-2-.79,2.26,2.26,0,0,1-.5-.77,3,3,0,0,1-.19-.87c0-.32,0-.77,0-1.36s0-.81,0-1.08a5.26,5.26,0,0,1,.08-.73,3,3,0,0,1,.21-.62,2.6,2.6,0,0,1,.42-.57,2.65,2.65,0,0,1,2-.79,2.69,2.69,0,0,1,2,.79,2.23,2.23,0,0,1,.49.77,3.45,3.45,0,0,1,.19.87C18.73,30.43,18.74,30.88,18.74,31.47Zm-1.13,0a9.37,9.37,0,0,0-.09-1.57,1.39,1.39,0,0,0-.35-.74,1.52,1.52,0,0,0-.5-.34,1.58,1.58,0,0,0-.61-.12,1.63,1.63,0,0,0-.62.12,1.52,1.52,0,0,0-.5.34,1.45,1.45,0,0,0-.35.75,9.15,9.15,0,0,0-.09,1.56c0,.39,0,.71,0,1a5.08,5.08,0,0,0,.07.62,3.05,3.05,0,0,0,.12.41,1.82,1.82,0,0,0,.23.33,1.43,1.43,0,0,0,.5.34,1.63,1.63,0,0,0,.62.12,1.45,1.45,0,0,0,1.11-.46,1.48,1.48,0,0,0,.28-.45,2.71,2.71,0,0,0,.12-.7C17.6,32.34,17.61,32,17.61,31.47Z"/><path class="cls-2" d="M31.94,35.2H27.21V27.74h1.14v6.44h3.59Z"/><path class="cls-2" d="M45.28,32.68A2.61,2.61,0,0,1,44.93,34a2.41,2.41,0,0,1-1,.91,3.09,3.09,0,0,1-2.74,0,2.45,2.45,0,0,1-.95-.91,2.52,2.52,0,0,1-.35-1.35V27.74h1.13v4.89a1.78,1.78,0,0,0,.19.85,1.33,1.33,0,0,0,.53.57,1.68,1.68,0,0,0,.82.19,1.62,1.62,0,0,0,.81-.19,1.41,1.41,0,0,0,.55-.56,1.94,1.94,0,0,0,.19-.86V27.74h1.13Z"/><path class="cls-2" d="M58.41,34.38a3.23,3.23,0,0,1-.58.47,2.33,2.33,0,0,1-.68.31,3.35,3.35,0,0,1-.82.1,2.86,2.86,0,0,1-.73-.09,2.77,2.77,0,0,1-.67-.27,3.46,3.46,0,0,1-.56-.43,2.26,2.26,0,0,1-.5-.77,3,3,0,0,1-.19-.87c0-.32,0-.77,0-1.36s0-.81,0-1.08a5.26,5.26,0,0,1,.08-.73A3,3,0,0,1,54,29a2.6,2.6,0,0,1,.42-.57,2.66,2.66,0,0,1,.89-.59,2.87,2.87,0,0,1,1.07-.2,2.68,2.68,0,0,1,1.15.22,3.12,3.12,0,0,1,.93.66l-.75.77a2.67,2.67,0,0,0-.62-.48,1.52,1.52,0,0,0-.71-.15,1.63,1.63,0,0,0-.62.12,1.25,1.25,0,0,0-.48.33,1.28,1.28,0,0,0-.23.32,2.11,2.11,0,0,0-.13.42c0,.18,0,.38-.07.62s0,.56,0,1A9.51,9.51,0,0,0,54.87,33a1.47,1.47,0,0,0,.36.75,1.37,1.37,0,0,0,.48.33,1.63,1.63,0,0,0,.62.12,1.52,1.52,0,0,0,.71-.15,2.67,2.67,0,0,0,.62-.48Z"/><path class="cls-2" d="M67.87,35.2H66.73V27.74h1.14Z"/><path class="cls-2" d="M81.72,31.47c0,.59,0,1,0,1.35a3.2,3.2,0,0,1-.18.88,2.25,2.25,0,0,1-.49.76,2.7,2.7,0,0,1-2,.8,2.65,2.65,0,0,1-2-.79,2.26,2.26,0,0,1-.5-.77,3,3,0,0,1-.19-.87c0-.32,0-.77,0-1.36s0-.81,0-1.08a5.26,5.26,0,0,1,.08-.73,3,3,0,0,1,.21-.62,2.6,2.6,0,0,1,.42-.57,2.65,2.65,0,0,1,2-.79,2.69,2.69,0,0,1,2,.79,2.23,2.23,0,0,1,.49.77,3.06,3.06,0,0,1,.18.87C81.71,30.43,81.72,30.88,81.72,31.47Zm-1.13,0a9.37,9.37,0,0,0-.09-1.57,1.39,1.39,0,0,0-.35-.74,1.52,1.52,0,0,0-.5-.34,1.64,1.64,0,0,0-1.23,0,1.52,1.52,0,0,0-.5.34,1.45,1.45,0,0,0-.35.75,9.15,9.15,0,0,0-.09,1.56c0,.39,0,.71,0,1a5.08,5.08,0,0,0,.07.62,2.06,2.06,0,0,0,.12.41,1.82,1.82,0,0,0,.23.33,1.43,1.43,0,0,0,.5.34,1.63,1.63,0,0,0,.62.12,1.45,1.45,0,0,0,1.11-.46,1.48,1.48,0,0,0,.28-.45,2.71,2.71,0,0,0,.12-.7C80.58,32.34,80.59,32,80.59,31.47Z"/><path class="cls-2" d="M95.81,35.2h-1L91.33,30V35.2H90.19V27.74h1L94.68,33V27.74h1.13Z"/><path class="cls-2" d="M109.34,35.2h-4.78V27.74h4.78v1h-3.63v2.17h3.09v1h-3.09v2.24h3.63Z"/><path class="cls-2" d="M122.36,33.07a2.13,2.13,0,0,1-.2.91,1.89,1.89,0,0,1-.56.7,2.35,2.35,0,0,1-.85.43,3.59,3.59,0,0,1-1.07.15,4.44,4.44,0,0,1-1.49-.23,3,3,0,0,1-1.16-.76l.76-.74a2.43,2.43,0,0,0,.55.42,2.71,2.71,0,0,0,.64.23,4,4,0,0,0,.72.06,1.87,1.87,0,0,0,1.13-.3,1,1,0,0,0,.41-.84,1,1,0,0,0-.3-.77.79.79,0,0,0-.31-.2,2,2,0,0,0-.5-.12l-.88-.12a2.62,2.62,0,0,1-1.42-.6,1.85,1.85,0,0,1-.54-1.42,2.19,2.19,0,0,1,.3-1.15,2,2,0,0,1,.87-.77,3,3,0,0,1,1.32-.27,3.9,3.9,0,0,1,1.3.2,3.14,3.14,0,0,1,1,.65l-.73.72a1.73,1.73,0,0,0-.48-.35,2.55,2.55,0,0,0-.53-.18,3.86,3.86,0,0,0-.61,0,1.64,1.64,0,0,0-.73.15,1,1,0,0,0-.47.41,1.08,1.08,0,0,0-.16.6.88.88,0,0,0,.28.69,1.22,1.22,0,0,0,.36.21,1.55,1.55,0,0,0,.48.13l.85.13a3.44,3.44,0,0,1,.83.21,1.65,1.65,0,0,1,.56.34A2,2,0,0,1,122.36,33.07Z"/><path class="cls-2" d="M148,27.74l-1.95,7.46h-1L143.59,30l-1.51,5.23h-1l-2-7.46h1.2l1.3,5.33,1.5-5.33h.91l1.5,5.33,1.29-5.33Z"/><path class="cls-2" d="M160.7,35.2h-4.77V27.74h4.77v1h-3.63v2.17h3.1v1h-3.1v2.24h3.63Z"/><path class="cls-2" d="M174.33,33.09a2.2,2.2,0,0,1-.28,1.15,1.78,1.78,0,0,1-.8.71,2.65,2.65,0,0,1-1.18.25h-3V27.74H172a2.64,2.64,0,0,1,1.19.25,1.82,1.82,0,0,1,.79.71,2.11,2.11,0,0,1,.27,1.08,1.67,1.67,0,0,1-.14.71,1.53,1.53,0,0,1-.37.55,1.48,1.48,0,0,1-.49.32,1.88,1.88,0,0,1,.8.63A1.86,1.86,0,0,1,174.33,33.09Zm-1.25-3.26a1.06,1.06,0,0,0-.15-.58,1,1,0,0,0-.42-.37,1.59,1.59,0,0,0-.64-.12h-1.68v2.13h1.68a1.32,1.32,0,0,0,.89-.28A1,1,0,0,0,173.08,29.83ZM173.2,33a1.1,1.1,0,0,0-.15-.59,1,1,0,0,0-.42-.4,1.49,1.49,0,0,0-.66-.14h-1.78v2.27H172a1.34,1.34,0,0,0,.66-.15.91.91,0,0,0,.42-.4A1.13,1.13,0,0,0,173.2,33Z"/></g></g></svg>